<svg fill="#000000" xmlns="http://www.w3.org/2000/svg"  viewBox="0 0 30 30" width="60px" height="60px"><path d="M 15.994141 1 C 15.994141 1 16.831 3.343 17 5 C 17 5 14.864 4 12 4 C 8.899 4 8 5.6738281 8 5.6738281 C 7.214 5.1438281 6 4 6 4 C 6 5.341 6.396 6.164 7 7 C 5.051 7 4 8 4 8 C 4 8 5.6878437 8.63675 6.5898438 9.09375 C 5.9728438 9.83775 5.7563906 10.515562 5.6503906 11.476562 C 5.5403906 12.478562 5.6509531 13.529969 6.1269531 14.417969 C 6.3514645 14.837277 6.6691052 15.207584 7.0429688 15.501953 C 7.0169328 15.661144 7 15.827149 7 16 C 7 17.23422 7.6825294 18.161784 8.3808594 18.535156 C 8.5901804 18.647073 8.752953 18.676194 8.9335938 18.730469 C 8.8173994 22.241978 8.0292969 25.761719 8.0292969 25.761719 A 1.0001 1.0001 0 1 0 9.9707031 26.238281 C 9.9707031 26.238281 11 22.097722 11 18 A 1.0001 1.0001 0 0 0 10.386719 17.078125 C 10.041053 16.933367 9.9080503 16.947839 9.7402344 16.910156 C 9.5724184 16.872473 9.4258038 16.825798 9.3242188 16.771484 C 9.1210486 16.662857 9 16.67278 9 16 C 9 15.36553 9.184516 15.296731 9.4550781 15.158203 C 9.7256402 15.019675 10.023437 15 10.023438 15 L 11 15 C 11.207 12.92 11.167625 11.662328 9.765625 10.111328 C 10.601625 10.351328 11.439391 10.590078 12.275391 10.830078 C 11.874391 9.9460781 11.237266 9.1714219 10.447266 8.6074219 C 13.273266 8.5274219 16.055 10 19 10 C 19.156649 10 19.298675 9.9894129 19.443359 9.9804688 L 19.46875 10.001953 C 18.755231 10.008445 18.104959 10.249556 17.554688 10.625 C 16.99447 10.238572 16.286977 10 15.5 10 C 14.416667 10 13.476892 10.442256 12.876953 11.117188 C 12.277014 11.792118 12 12.652778 12 13.5 C 12 14.347222 12.277014 15.207881 12.876953 15.882812 C 13.476892 16.557744 14.416667 17 15.5 17 C 16.286977 17 16.99447 16.761428 17.554688 16.375 C 18.091205 16.74106 18.7228 16.977189 19.416016 16.994141 A 1.0001 1.0001 0 0 0 19.46875 17.007812 C 19.46875 17.007812 19.629802 17.050482 19.787109 17.15625 C 19.944417 17.262022 20 17.286049 20 17.5 C 20 17.733559 19.98065 17.712593 19.792969 17.818359 C 19.605287 17.924126 19.235201 18 19 18 A 1.0001 1.0001 0 1 0 19 20 C 19.429164 20 19.931091 19.932309 20.441406 19.716797 C 20.649546 19.875615 20.808229 19.98567 21.166016 20.298828 C 21.411536 20.513724 21.635399 20.732489 21.802734 20.917969 C 21.615959 20.954487 21.405694 21 21 21 C 18.398563 21 16.723164 20.755234 15.726562 20.525391 C 14.729961 20.295547 14.513672 20.142578 14.513672 20.142578 A 1.0001 1.0001 0 1 0 13.486328 21.857422 C 13.486328 21.857422 14.105945 22.204453 15.277344 22.474609 C 16.015384 22.644822 17.563913 22.708324 18.882812 22.806641 C 18.818583 23.051841 18.705201 23.333091 18.351562 23.605469 C 17.92005 23.937829 17.299905 24.140945 17.105469 24.148438 C 16.465693 24.173578 15.967193 24.469625 15.634766 24.777344 C 15.468552 24.931203 15.337292 25.090399 15.230469 25.263672 C 15.123645 25.436944 15 25.560652 15 26 A 1.0001 1.0001 0 0 0 16.962891 26.279297 C 16.973751 26.266047 16.976671 26.260311 16.994141 26.244141 C 17.061411 26.181871 17.134362 26.148834 17.181641 26.146484 C 18.025204 26.113974 18.835279 25.757093 19.572266 25.189453 C 20.220391 24.690255 20.756132 23.92745 20.894531 22.990234 C 20.944174 22.990413 20.949746 23 21 23 C 21.619058 23 22.203896 22.9904 22.806641 22.748047 C 23.409385 22.505678 24 21.75705 24 21 C 24 20.255453 23.666231 20.006471 23.392578 19.6875 C 23.118925 19.368529 22.798617 19.068014 22.484375 18.792969 C 22.251047 18.588745 22.046601 18.427905 21.847656 18.269531 C 21.936793 18.029122 22 17.775963 22 17.5 C 22 17.014075 21.845546 16.593591 21.628906 16.251953 C 22.45525 15.60954 23 14.618551 23 13.5 C 23 12.395817 22.468462 11.41669 21.660156 10.773438 A 1.0001 1.0001 0 0 0 21.699219 9.2832031 C 22.870071 8.4583993 23 7.1618785 23 6.7324219 C 23 4.4344219 19.037109 1.0527344 19.037109 1.0527344 C 19.037109 1.0527344 20.058 4.577 20 5 C 20 5 18.584141 1.911 15.994141 1 z M 15.5 12 C 16.046677 12 16.349622 12.164105 16.578125 12.400391 A 1.000787 1.000787 0 0 0 16.820312 12.748047 C 16.931398 12.971423 17 13.230767 17 13.5 C 17 13.768942 16.933126 14.028732 16.822266 14.251953 A 1.000787 1.000787 0 0 0 16.576172 14.601562 C 16.347869 14.836767 16.045152 15 15.5 15 C 14.916667 15 14.606441 14.817256 14.373047 14.554688 C 14.139653 14.292118 14 13.902778 14 13.5 C 14 13.097222 14.139653 12.707881 14.373047 12.445312 C 14.606441 12.182745 14.916667 12 15.5 12 z M 19.5 12 C 20.340812 12 21 12.659188 21 13.5 C 21 14.340812 20.340812 15 19.5 15 C 19.229027 15 18.983195 14.924022 18.767578 14.798828 C 18.92271 14.380332 19 13.938987 19 13.5 C 19 13.061013 18.92271 12.619668 18.767578 12.201172 C 18.983195 12.075978 19.229027 12 19.5 12 z M 19 13.5 A 0.5 0.5 0 0 0 19.5 14 A 0.5 0.5 0 0 0 19.5 13 A 0.5 0.5 0 0 0 19 13.5 z M 15.5 13 A 0.5 0.5 0 0 0 15.5 14 A 0.5 0.5 0 0 0 15.5 13 z"/></svg>