<svg fill="#000000" xmlns="http://www.w3.org/2000/svg"  viewBox="0 0 30 30" width="60px" height="60px"><path d="M 13 2 C 10.739964 2 8.7063527 2.743978 7.2597656 4.1875 C 5.8131785 5.631022 4.9980469 7.7360379 4.9980469 10.257812 C 4.9980469 15.549618 8 21.777478 8 27 A 1.0001 1.0001 0 1 0 10 27 C 10 21.060522 6.9980469 14.730009 6.9980469 10.257812 C 6.9980469 8.1555881 7.6407121 6.6305405 8.671875 5.6015625 C 9.7030379 4.5725845 11.169036 4 13 4 C 16.082026 4 17.755565 5.1474007 18.761719 6.2734375 C 19.767872 7.3994743 20.03125 8.4570312 20.03125 8.4570312 A 1.0001 1.0001 0 0 0 20.591797 9.1269531 C 20.591797 9.1269531 21.247827 9.4539586 21.664062 10.039062 C 20.646232 10.191318 19.790358 10.790363 19.191406 11.603516 C 19.115746 11.498439 19.085545 11.371873 18.998047 11.273438 C 18.314774 10.504756 17.25 10 16 10 C 14.75 10 13.685226 10.504756 13.001953 11.273438 C 12.318681 12.042118 12 13.027778 12 14 C 12 14.972222 12.318681 15.957881 13.001953 16.726562 C 13.685226 17.495244 14.75 18 16 18 C 17.25 18 18.314774 17.495244 18.998047 16.726562 C 19.298618 16.38842 19.50055 15.996319 19.664062 15.59375 C 20.507434 16.233663 21.482424 16.772611 22.578125 17.404297 A 1.0001 1.0001 0 0 0 22.71875 17.46875 A 1.0001 1.0001 0 0 0 22.857422 17.597656 C 22.857422 17.597656 25 19.373274 25 21.585938 C 25 22.024124 24.92661 22.502444 24.8125 22.734375 C 24.698394 22.966306 24.738449 23 24.353516 23 C 24.193901 23 24.065552 22.987444 23.953125 22.970703 C 23.979894 22.683188 23.992187 22.41194 23.992188 22.236328 C 23.992188 21.258026 23.539063 20.525391 23.539062 20.525391 A 1.0001 1.0001 0 1 0 21.779297 21.474609 C 21.779297 21.474609 21.992187 21.97863 21.992188 22.236328 C 21.992186 22.561409 21.950478 23.150061 21.800781 23.523438 C 21.651088 23.896814 21.643104 24 21.169922 24 C 21.117931 24 21.118274 23.992476 21.083984 23.990234 C 20.970168 23.982795 20.892025 23.971294 20.798828 23.957031 C 20.834688 23.727692 20.99796 23.492157 20.998047 23.273438 L 20.998047 23.271484 C 20.998622 21.579428 20.40625 20.496094 20.40625 20.496094 A 1.0001 1.0001 0 0 0 19.490234 19.988281 A 1.0001 1.0001 0 0 0 18.677734 21.503906 C 18.677734 21.503906 18.998909 21.988917 18.998047 23.271484 C 18.998047 23.617057 18.867902 24.157657 18.646484 24.501953 C 18.425067 24.846249 18.234439 25 17.828125 25 C 17.268974 25 17.061134 24.920173 16.994141 24.896484 C 16.997005 24.883672 16.998583 24.89872 17.001953 24.878906 C 17.034123 24.689708 17.168084 24.327589 17.322266 23.929688 C 17.476447 23.531785 17.673828 23.108473 17.673828 22.511719 C 17.673828 21.932446 17.421105 21.354462 17.042969 20.982422 C 16.66483 20.610335 16.215251 20.413305 15.765625 20.28125 C 14.866372 20.017141 13.890813 20 13 20 A 1.0001 1.0001 0 1 0 13 22 C 13.837187 22 14.697878 22.05278 15.203125 22.201172 C 15.455749 22.275362 15.600074 22.368306 15.640625 22.408203 C 15.681175 22.448103 15.673828 22.405003 15.673828 22.511719 C 15.673828 22.522469 15.602428 22.83684 15.458984 23.207031 C 15.315541 23.577223 15.121577 24.011792 15.03125 24.542969 C 14.94092 25.074146 15.03025 25.873499 15.597656 26.375 C 16.165072 26.876501 16.889997 27 17.828125 27 C 18.76769 27 19.492114 26.501575 20 25.908203 L 20 27 A 1.0001 1.0001 0 1 0 22 27 L 22 25.857422 C 22.565622 25.659594 23.014917 25.277214 23.324219 24.851562 C 23.6263 24.934209 23.961265 25 24.353516 25 C 25.390582 25 26.253528 24.336506 26.607422 23.617188 C 26.961315 22.897869 27 22.170751 27 21.585938 C 27 19.472214 25.882381 17.843487 25.03125 16.908203 C 25.195012 16.774532 25.339377 16.621588 25.457031 16.445312 C 25.942076 15.718595 26 14.90092 26 14 C 26 12.492325 25.170878 11.161866 23.953125 10.482422 C 23.722721 8.6751469 22.357445 7.8586162 21.822266 7.5800781 C 21.67728 7.132823 21.306719 6.1198938 20.251953 4.9394531 C 18.929107 3.4589899 16.601974 2 13 2 z M 16 12 C 16.749999 12 17.185226 12.245244 17.501953 12.601562 C 17.81868 12.957882 18 13.472222 18 14 C 18 14.527778 17.81868 15.042119 17.501953 15.398438 C 17.185226 15.754755 16.749999 16 16 16 C 15.250001 16 14.814774 15.754756 14.498047 15.398438 C 14.18132 15.042118 14 14.527778 14 14 C 14 13.472222 14.18132 12.957881 14.498047 12.601562 C 14.814774 12.245245 15.250001 12 16 12 z M 22.173828 12 C 23.161264 12 24 12.852354 24 14 C 24 14.75608 23.878424 15.207904 23.792969 15.335938 C 23.731999 15.427288 23.514268 15.451168 23.283203 15.480469 C 22.972514 15.300994 22.75417 15.162628 22.480469 15 A 0.5 0.5 0 0 0 22.5 15 A 0.5 0.5 0 0 0 22.5 14 A 0.5 0.5 0 0 0 22.068359 14.751953 C 21.333043 14.304248 20.722582 13.909353 20.478516 13.652344 C 20.648919 12.714697 21.305338 12 22.173828 12 z M 16.5 14 A 0.5 0.5 0 0 0 16.5 15 A 0.5 0.5 0 0 0 16.5 14 z"/></svg>