<svg fill="#000000" xmlns="http://www.w3.org/2000/svg"  viewBox="0 0 30 30" width="60px" height="60px"><path d="M 15 3 C 10.203704 3 6.8391474 5.202928 4.8105469 8.0429688 C 2.7819464 10.883009 2 14.3 2 17 C 2 18.018667 1.9850611 18.827314 2.2890625 19.611328 C 2.4192098 19.946975 2.6876639 20.255339 3 20.505859 L 3 24 A 1.0001 1.0001 0 1 0 5 24 L 5 20.761719 C 5.4542376 20.615252 5.945964 20.477274 6.203125 20.25 C 6.5800894 19.916845 6.8183594 19.574219 6.8183594 19.574219 A 1.0001 1.0001 0 1 0 5.1816406 18.425781 C 5.1816406 18.425781 5.0676919 18.583155 4.8789062 18.75 C 4.6901208 18.916845 4.480905 19 4.4394531 19 C 4.2332997 19 4.1834123 18.96492 4.1894531 18.96875 C 4.1954931 18.97255 4.1961729 18.996672 4.1542969 18.888672 C 4.0705481 18.672688 4 17.981333 4 17 C 4 14.7 4.7180536 11.616991 6.4394531 9.2070312 C 8.1608526 6.797072 10.796296 5 15 5 C 19.203704 5 21.839147 6.797072 23.560547 9.2070312 C 25.281946 11.616991 26 14.7 26 17 C 26 17.981333 25.92945 18.672686 25.845703 18.888672 C 25.803833 18.996665 25.804507 18.97258 25.810547 18.96875 C 25.816547 18.96495 25.766697 19 25.560547 19 C 25.519097 19 25.309879 18.91684 25.121094 18.75 C 24.932308 18.583155 24.818359 18.425781 24.818359 18.425781 A 1.0001 1.0001 0 1 0 23.181641 19.574219 C 23.181641 19.574219 23.419911 19.916845 23.796875 20.25 C 24.054036 20.477274 24.545762 20.615252 25 20.761719 L 25 24 A 1.0001 1.0001 0 1 0 27 24 L 27 20.505859 C 27.312336 20.255339 27.58079 19.946975 27.710938 19.611328 C 28.014942 18.827314 28 18.018667 28 17 C 28 14.3 27.218054 10.883009 25.189453 8.0429688 C 23.160853 5.202928 19.796296 3 15 3 z M 10.5 10 C 8.567 10 7 11.567 7 13.5 C 7 14.871921 7.7960073 16.047273 8.9453125 16.621094 C 8.3348741 17.690986 8 18.865578 8 20 C 8 20.887319 8.035376 22.19084 8.3515625 23.392578 C 8.5096555 23.993447 8.7324891 24.5806 9.1445312 25.087891 C 9.5565736 25.595181 10.243328 26 11 26 C 11.635197 26 12.283012 25.765802 12.734375 25.332031 C 12.842134 25.228473 12.936562 25.116711 13.023438 25 L 16.976562 25 C 17.063438 25.116711 17.157866 25.228473 17.265625 25.332031 C 17.716988 25.765802 18.364803 26 19 26 C 19.756672 26 20.443427 25.595181 20.855469 25.087891 C 21.267511 24.5806 21.490343 23.993447 21.648438 23.392578 C 21.964624 22.19084 22 20.887319 22 20 C 22 18.865578 21.665126 17.690986 21.054688 16.621094 C 22.203993 16.047273 23 14.871921 23 13.5 C 23 11.567 21.433 10 19.5 10 C 17.71558 10 16.258797 11.340477 16.042969 13.066406 C 15.704708 13.013764 15.359942 12.976562 15 12.976562 C 14.640058 12.976562 14.295292 13.013764 13.957031 13.066406 C 13.741203 11.340477 12.28442 10 10.5 10 z M 11 11 C 12.105 11 13 11.895 13 13 C 13 13.101952 12.98345 13.199037 12.96875 13.296875 C 11.937248 13.623971 11.037578 14.179845 10.308594 14.871094 C 9.5458762 14.589142 9 13.861004 9 13 C 9 11.895 9.895 11 11 11 z M 20 11 C 21.105 11 22 11.895 22 13 C 22 14.105 21.105 15 20 15 C 19.93024 15 19.864789 14.985477 19.796875 14.978516 C 19.321192 14.508104 18.770049 14.095782 18.152344 13.767578 C 18.054154 13.531297 18 13.271923 18 13 C 18 11.895 18.895 11 20 11 z M 15 14.976562 C 16.551945 14.976562 17.764018 15.662586 18.640625 16.65625 C 19.517232 17.649914 20 18.962442 20 20 C 20 20.815681 19.94441 22.012254 19.714844 22.884766 C 19.600062 23.321021 19.436036 23.664009 19.302734 23.828125 C 19.169433 23.992241 19.151828 24 19 24 C 18.770197 24 18.736215 23.971151 18.650391 23.888672 C 18.564566 23.806192 18.427305 23.594291 18.314453 23.191406 C 18.132908 22.543283 18.056761 21.380709 18.027344 19.984375 A 3.485 2 0 0 0 15 17 A 3.485 2 0 0 0 11.970703 19.986328 C 11.941238 21.381648 11.867002 22.543604 11.685547 23.191406 C 11.572695 23.594291 11.435434 23.806192 11.349609 23.888672 C 11.263785 23.971151 11.229803 24 11 24 C 10.848172 24 10.830567 23.992241 10.697266 23.828125 C 10.563964 23.664009 10.399938 23.321021 10.285156 22.884766 C 10.055592 22.012254 10 20.815681 10 20 C 10 18.962442 10.482768 17.649914 11.359375 16.65625 C 12.235982 15.662586 13.448055 14.976564 15 14.976562 z M 13.966797 20.908203 A 3.485 2 0 0 0 15 21 A 3.485 2 0 0 0 16.033203 20.908203 C 16.062587 21.682855 16.123703 22.380856 16.234375 23 L 13.765625 23 C 13.876296 22.380856 13.937412 21.682855 13.966797 20.908203 z"/></svg>