<svg fill="#000000" xmlns="http://www.w3.org/2000/svg"  viewBox="0 0 30 30" width="60px" height="60px"><path d="M 8.9980469 3 C 7.4952086 3 6.008675 3.4300429 4.8671875 4.40625 C 3.7257 5.3824571 3 6.9129973 3 8.7988281 C 3 10.558968 3.7116338 11.991798 4.5703125 13.097656 C 4.5615738 13.102133 4.5516785 13.106846 4.5429688 13.111328 A 1.0001 1.0001 0 1 0 5.4570312 14.888672 C 5.6335224 14.797844 5.8356371 14.707251 6.03125 14.617188 C 6.4643563 14.983266 6.7503348 15.188983 7.03125 15.371094 C 7.0161206 15.491621 7 15.612993 7 15.730469 C 7 16.706219 7.3713562 17.444939 7.6542969 17.894531 C 7.9372375 18.344124 8 18.463361 8 18.501953 C 8 19.29146 8.2950249 19.963977 8.71875 20.384766 C 8.9074579 20.572166 9.1374534 20.557919 9.3417969 20.658203 C 9.3143589 20.792941 9.2756939 20.90604 9.2480469 21.050781 C 9.0859921 21.899178 9 22.913747 9 24 A 1.0001 1.0001 0 1 0 11 24 C 11 23.021253 11.080739 22.107385 11.210938 21.425781 C 11.341133 20.744178 11.650459 20.280398 11.517578 20.404297 A 1.0001 1.0001 0 0 0 11.662109 20.240234 C 11.691289 20.213964 11.792969 20.132812 11.792969 20.132812 A 1.0001 1.0001 0 1 0 10.425781 18.673828 C 10.425781 18.673828 10.304004 18.786233 10.15625 18.894531 C 10.14184 18.905091 10.129351 18.903529 10.113281 18.912109 C 10.066911 18.863117 10 18.804948 10 18.501953 C 10 17.684545 9.5627625 17.173032 9.3457031 16.828125 C 9.1286438 16.483218 9 16.264718 9 15.730469 C 9 15.529696 9.0608462 15.36279 9.171875 15.248047 C 9.2829038 15.133304 9.4752064 15 10 15 A 1.0001 1.0001 0 0 0 10.373047 13.066406 C 11.100291 12.856053 11.760181 12.683227 12.373047 12.542969 C 12.550195 12.90512 12.77325 13.246138 13.023438 13.558594 C 13.136437 13.699594 13.258922 13.840063 13.419922 13.914062 C 13.559922 13.979062 13.716141 13.987187 13.869141 13.992188 C 15.072141 14.034187 16.281219 13.89975 17.449219 13.59375 C 18.379423 13.350494 19.375525 12.889814 19.791016 12.023438 C 21.971306 12.127985 23.020375 12.650743 23.496094 13.072266 C 23.999837 13.51862 23.975781 13.861295 23.974609 13.953125 C 23.968109 13.957725 23.949709 14 23.644531 14 C 21.897103 14 21.003066 14.189483 20.53125 14.263672 C 20.059434 14.337862 20.123087 14.374083 19.373047 14.072266 A 1.0001 1.0001 0 1 0 18.626953 15.927734 C 19.541913 16.295917 20.248363 16.331593 20.841797 16.238281 C 21.409758 16.14898 22.003527 16.015471 23.466797 16.003906 C 24.074553 16.81466 24.85027 17.278881 25.435547 17.560547 C 25.499207 17.591187 25.514937 17.59756 25.574219 17.625 C 25.417671 17.69273 25.304832 17.762691 25.070312 17.814453 C 24.293762 17.985851 23.266641 18.001965 22.681641 18 C 22.37152 17.999 22.06685 18.065344 21.794922 18.173828 C 21.724308 18.066424 21.661861 17.950294 21.576172 17.859375 C 20.998755 17.246716 20.237218 17 19.513672 17 C 18.474495 17 17.755864 17.342282 17.193359 17.576172 C 16.630855 17.810062 16.136559 18 15 18 A 1.0001 1.0001 0 1 0 15 20 C 16.399441 20 17.320941 19.689938 17.960938 19.423828 C 18.600933 19.157718 18.870849 19 19.513672 19 C 19.730126 19 20.006261 19.110581 20.121094 19.232422 C 20.233142 19.351309 20.323471 19.449493 20.193359 19.910156 C 19.961675 20.316683 19.781824 20.585484 19.404297 20.705078 C 18.573416 20.968457 18.083445 21.57905 17.869141 21.867188 C 17.76663 22.005016 17.720423 22.048376 17.736328 22.037109 C 17.429854 22.066899 17.093912 22.193426 16.90625 22.376953 C 16.697873 22.58074 16.6092 22.770602 16.537109 22.929688 C 16.392928 23.247856 16.321794 23.501201 16.208984 23.748047 C 15.983366 24.241739 15.72779 24.692021 14.673828 25.054688 A 1.0001 1.0001 0 1 0 15.326172 26.945312 C 16.87321 26.412979 17.669713 25.362636 18.027344 24.580078 C 18.188336 24.227799 18.271287 23.970745 18.324219 23.837891 C 18.5405 23.773481 18.784327 23.754531 18.939453 23.636719 C 19.219657 23.423916 19.365886 23.208681 19.474609 23.0625 C 19.692055 22.770138 19.696694 22.709949 20.007812 22.611328 C 21.233555 22.223032 21.780888 21.192994 22.103516 20.613281 C 22.26483 20.323425 22.395301 20.133545 22.464844 20.068359 C 22.533804 20.003719 22.504474 19.99952 22.673828 20 C 23.279828 20.002 24.415253 20.0074 25.501953 19.767578 C 26.045303 19.647652 26.588575 19.474257 27.080078 19.117188 C 27.571581 18.760122 28 18.108731 28 17.382812 C 28 17.009341 27.796683 16.666134 27.619141 16.488281 C 27.441598 16.310429 27.283903 16.223656 27.138672 16.146484 C 26.84821 15.992142 26.578439 15.890497 26.302734 15.757812 C 26.024654 15.623986 25.756365 15.474949 25.511719 15.277344 C 25.857943 14.885717 26 14.397732 26 14 C 26 13.644818 25.884177 12.752219 25.166016 11.923828 C 25.655678 11.780145 26 11.346676 26 10 C 26 8.04 24.843047 7.985 24.373047 8 C 24.373047 8 23.692469 8.0737881 22.919922 8.2011719 C 22.496593 6.6698662 21.094265 5.6180313 19.548828 5.7363281 C 19.258587 5.406695 19.056333 5.0114648 18.603516 4.7851562 C 17.990814 4.4789411 17.18727 4.3886633 16.359375 4.5410156 C 16.211088 4.4508898 16.090448 4.3060665 15.904297 4.2167969 C 15.486837 4.0166022 14.95921 3.8196015 14.310547 3.640625 C 13.013221 3.2826721 11.233411 3 8.9980469 3 z M 8.9980469 5 C 11.063683 5 12.674623 5.2635623 13.779297 5.5683594 C 14.331634 5.7207579 14.758023 5.8847573 15.039062 6.0195312 C 15.320104 6.1543054 15.475229 6.3443625 15.337891 6.1660156 A 1.0001 1.0001 0 0 0 16.490234 6.4882812 C 16.935258 6.3166338 17.340155 6.3898848 17.708984 6.5742188 C 18.077814 6.7585517 18.343822 7.1608858 18.310547 7.0703125 A 1.0001 1.0001 0 0 0 19.517578 7.6894531 C 20.206934 7.4982054 20.73972 7.8480509 20.972656 8.6699219 C 20.824332 8.7261278 20.68541 8.7862488 20.576172 8.8496094 C 20.109297 9.1207815 19.875604 9.3108607 19.714844 9.4824219 C 19.556412 9.0211449 19.321795 8.5991205 18.927734 8.3457031 C 18.658734 8.1727031 18.34425 8.0938281 18.03125 8.0488281 C 16.45825 7.8248281 14.894203 8.4141406 13.408203 8.9941406 C 12.890203 9.1971406 12.490234 9.5605469 12.490234 9.5605469 C 12.258885 9.8465416 12.116706 10.195357 12.048828 10.5625 C 10.423591 10.918282 8.3919051 11.492649 6.5253906 12.228516 C 5.7296924 11.338141 5 10.167523 5 8.7988281 C 5 7.3946589 5.4635032 6.5265742 6.1660156 5.9257812 C 6.8685281 5.3249883 7.8788852 5 8.9980469 5 z"/></svg>