<svg fill="#000000" xmlns="http://www.w3.org/2000/svg"  viewBox="0 0 30 30" width="60px" height="60px"><path d="M 14.5 0 C 13.416667 0 12.476892 0.44225559 11.876953 1.1171875 C 11.277014 1.7921194 11 2.6527779 11 3.5 C 11 4.1166186 11.151716 4.7388987 11.462891 5.2929688 C 11.297366 5.4547504 11.122729 5.6432687 10.953125 5.8867188 C 10.460748 6.5934774 10 7.7000847 10 9.2070312 C 10 9.2656745 10.00989 9.3237661 10.011719 9.3828125 C 8.5838623 9.9632077 8 11.024342 8 12.267578 C 8 12.267578 3 13.462891 3 19.712891 C 3 25.679891 9.8066406 26.976562 9.8066406 26.976562 A 1.0005835 1.0005835 0 0 0 10.474609 25.113281 C 9.2873502 24.473357 9 23.745203 9 22.988281 C 9 22.720207 9.2576838 21 13 21 A 1.0001 1.0001 0 0 0 13.035156 21 C 14.028796 20.96448 15.003731 20.981322 15.068359 20.982422 C 15.089709 21.025752 15.090931 21.076412 15.113281 21.119141 A 1.0007216 1.0007216 0 1 0 16.886719 20.191406 C 16.55585 19.559119 16.500833 18.902696 16.626953 18.582031 C 16.753074 18.261366 16.947506 18 18 18 C 18.859571 18 19.303224 18.173289 19.503906 18.310547 C 19.704589 18.447805 19.743293 18.545663 19.777344 18.730469 C 19.804862 18.879822 19.783993 19.059589 19.753906 19.226562 A 1.5 0.5 0 0 0 18.5 19 A 1.5 0.5 0 0 0 18.5 20 A 1.5 0.5 0 0 0 19.580078 19.845703 A 1.0001 1.0001 0 0 0 21.460938 20.513672 C 21.460938 20.513672 21.507264 20.405296 21.564453 20.251953 C 21.966423 20.126688 22.511627 20 23 20 C 23.386218 20 23.87765 20.159667 24.214844 20.353516 C 24.302964 20.404176 24.33536 20.439776 24.396484 20.486328 C 24.315984 20.711267 24.060185 21.155128 22.761719 21.703125 C 21.146514 22.384796 18.153093 23 13.087891 23 A 1.0001 1.0001 0 1 0 13.087891 25 C 13.557531 25 13.991992 24.989941 14.429688 24.980469 C 14.966405 25.88602 15.595703 27 15.595703 27 C 15.595703 27 15.840553 26.04743 15.947266 24.925781 C 18.930633 24.775056 21.10274 24.391104 22.673828 23.869141 C 22.467984 24.326487 22.129993 24.810433 21.544922 25.109375 A 1.0001544 1.0001544 0 1 0 22.455078 26.890625 C 24.92786 25.62716 24.980469 22.755859 24.980469 22.755859 A 1.0001 1.0001 0 0 0 24.980469 22.75 C 26.003021 22.016041 26.498047 21.155433 26.498047 20.298828 C 26.498047 19.708648 26.225924 19.450471 26 19.216797 C 25.774076 18.983123 25.512215 18.792341 25.210938 18.619141 C 24.925642 18.455128 24.512387 18.435917 24.164062 18.326172 C 24.458696 18.140789 24.776715 17.975561 24.998047 17.726562 C 25.681319 16.957881 26 15.972222 26 15 C 26 14.027778 25.681319 13.042119 24.998047 12.273438 C 24.314774 11.504755 23.25 11 22 11 C 21.976984 11 21.956483 11.005519 21.933594 11.005859 C 18.555062 9.3329343 14.503906 10.396484 14.503906 10.396484 C 14.503906 10.396484 14.018271 8.9791549 12.015625 8.9863281 C 12.05627 8.01517 12.332739 7.4039514 12.59375 7.0292969 C 12.729696 6.8341596 12.838365 6.7179464 12.917969 6.6445312 C 13.385985 6.8664527 13.919223 7 14.5 7 C 15.583333 7 16.523108 6.5577444 17.123047 5.8828125 C 17.722986 5.2078806 18 4.3472221 18 3.5 C 18 2.6527779 17.722986 1.7921194 17.123047 1.1171875 C 16.523108 0.44225559 15.583333 0 14.5 0 z M 14.5 2 C 15.083333 2 15.393559 2.1827444 15.626953 2.4453125 C 15.860347 2.7078806 16 3.0972221 16 3.5 C 16 3.9027779 15.860347 4.2921194 15.626953 4.5546875 C 15.393559 4.8172556 15.083333 5 14.5 5 C 13.916667 5 13.606441 4.8172556 13.373047 4.5546875 C 13.139653 4.2921194 13 3.9027779 13 3.5 C 13 3.0972221 13.139653 2.7078806 13.373047 2.4453125 C 13.606441 2.1827444 13.916667 2 14.5 2 z M 14.5 3 A 0.5 0.5 0 0 0 14.5 4 A 0.5 0.5 0 0 0 14.5 3 z M 22 13 C 22.749999 13 23.185226 13.245244 23.501953 13.601562 C 23.81868 13.957882 24 14.472222 24 15 C 24 15.527778 23.81868 16.042119 23.501953 16.398438 C 23.185226 16.754756 22.749999 17 22 17 C 21.250001 17 20.814774 16.754756 20.498047 16.398438 C 20.18132 16.042119 20 15.527778 20 15 C 20 14.472222 20.18132 13.957881 20.498047 13.601562 C 20.814774 13.245245 21.250001 13 22 13 z M 12.5 14 C 14.404761 14 15 15.018518 15 16 C 15 16.981482 14.404761 18 12.5 18 C 10.595239 18 10 16.981482 10 16 C 10 15.018518 10.595239 14 12.5 14 z M 22.5 14 A 0.5 0.5 0 0 0 22.5 15 A 0.5 0.5 0 0 0 22.5 14 z M 13.5 15 A 0.5 0.5 0 0 0 13.5 16 A 0.5 0.5 0 0 0 13.5 15 z"/></svg>