<svg fill="#000000" xmlns="http://www.w3.org/2000/svg"  viewBox="0 0 30 30" width="60px" height="60px"><path d="M 15 3 C 11.470687 3 8.6975511 4.0128836 7.1542969 6.4667969 A 1.0001 1.0001 0 0 0 7.1542969 6.46875 C 6.4153393 7.6442514 6.1679455 9.016866 6.0585938 10.111328 C 5.9633778 11.064314 6.0010636 11.624859 6.0097656 11.808594 L 5.1425781 14.410156 C 4.564386 14.746105 3 15.76215 3 18 C 3 20.149988 4.4155643 21.137367 5.0585938 21.527344 C 5.0723008 21.768469 5.0573842 21.884592 5.1445312 22.320312 C 5.2896458 23.045886 5.5572664 23.971329 6.2929688 24.707031 C 7.5718048 25.985867 9.8502602 27 12.183594 27 C 13.316257 27 14.12497 26.535535 14.714844 26 L 15.285156 26 C 15.87503 26.535535 16.683743 27 17.816406 27 C 20.14974 27 22.428195 25.985867 23.707031 24.707031 C 24.442734 23.971329 24.710354 23.045885 24.855469 22.320312 C 24.942609 21.884591 24.927696 21.768469 24.941406 21.527344 C 25.584433 21.137367 27 20.149988 27 18 C 27 15.76215 25.435614 14.746105 24.857422 14.410156 L 23.990234 11.808594 C 23.998934 11.624859 24.036626 11.064314 23.941406 10.111328 C 23.832057 9.016866 23.584661 7.6442514 22.845703 6.46875 A 1.0001 1.0001 0 0 0 22.845703 6.4667969 C 21.302449 4.0128805 18.529313 3 15 3 z M 15 5 C 18.178687 5 20.033551 5.7511164 21.154297 7.5332031 C 21.392414 7.9124864 21.442764 8.4813899 21.576172 9 L 8.4238281 9 C 8.5572357 8.4813899 8.6075859 7.9124864 8.8457031 7.5332031 C 9.9664489 5.7511164 11.821313 5 15 5 z M 8.0273438 11 L 8.9277344 11 C 8.7885836 11.116281 8.6933594 11.26049 8.6933594 11.462891 C 8.6933594 12.462891 9 14 10 14 C 10.679 14 14 12.055109 14 11.287109 C 14 11.185918 13.853861 11.089707 13.646484 11 L 16.353516 11 C 16.146139 11.089707 16 11.185918 16 11.287109 C 16 12.055109 19.321 14 20 14 C 21 14 21.306641 12.462891 21.306641 11.462891 C 21.306641 11.26049 21.211416 11.116281 21.072266 11 L 21.972656 11 C 21.978556 11.374424 22.001953 11.939453 22.001953 11.939453 A 1.0001 1.0001 0 0 0 22.050781 12.316406 L 23.050781 15.316406 A 1.0001 1.0001 0 0 0 23.552734 15.894531 C 23.552734 15.894531 23.819472 16.056828 24.113281 16.310547 C 22.10268 16.983378 21.138672 18.494141 21.138672 18.494141 A 1.0001 1.0001 0 1 0 22.861328 19.505859 C 22.861328 19.505859 23.412873 18.473505 24.986328 18.107422 C 24.90875 19.371774 23.552734 20.105469 23.552734 20.105469 A 1.0001 1.0001 0 0 0 23 21 C 23 21 22.999417 21.405259 22.894531 21.929688 C 22.789646 22.454114 22.557266 23.028671 22.292969 23.292969 C 21.58554 24.000398 19.564121 24.957747 17.914062 24.994141 L 17.623047 24.496094 C 17.485448 24.2601 17.259001 24.09749 17 24.033203 L 17 23 C 17 22.5416 16.684569 22.170689 16.263672 22.052734 L 16.189453 21.757812 C 16.078453 21.312813 15.67775 21 15.21875 21 L 14.78125 21 C 14.32225 21 13.921547 21.312812 13.810547 21.757812 L 13.736328 22.052734 C 13.315431 22.170689 13 22.5416 13 23 L 13 24.033203 C 12.740999 24.09749 12.514552 24.2601 12.376953 24.496094 L 12.085938 24.994141 C 10.435879 24.957747 8.4144603 24.000398 7.7070312 23.292969 C 7.4427335 23.028671 7.2103543 22.454114 7.1054688 21.929688 C 7.0005832 21.405259 7 21 7 21 A 1.0001 1.0001 0 0 0 6.4472656 20.105469 C 6.4472656 20.105469 5.0912499 19.371774 5.0136719 18.107422 C 6.5871273 18.473505 7.1386719 19.505859 7.1386719 19.505859 A 1.0001 1.0001 0 1 0 8.8613281 18.494141 C 8.8613281 18.494141 7.8973205 16.983378 5.8867188 16.310547 C 6.1805282 16.056828 6.4472656 15.894531 6.4472656 15.894531 A 1.0001 1.0001 0 0 0 6.9492188 15.316406 L 7.9492188 12.316406 A 1.0001 1.0001 0 0 0 7.9980469 11.939453 C 7.9980469 11.939453 8.0214928 11.374424 8.0273438 11 z M 15 15 C 14.002 15.001 13.303094 15.482563 12.746094 15.976562 C 12.179094 16.455562 11.760547 16.975734 11.435547 17.052734 L 11.359375 17.070312 C 11.108375 17.130312 10.953672 17.383766 11.013672 17.634766 C 11.061672 17.838766 11.236547 17.978187 11.435547 17.992188 C 11.937547 18.027188 12.364641 17.823156 12.681641 17.660156 C 13.005641 17.489156 13.649953 17.001 15.001953 17 C 16.353953 17 16.998266 17.489156 17.322266 17.660156 C 17.640266 17.823156 18.066359 18.027188 18.568359 17.992188 C 18.767359 17.978188 18.942234 17.838766 18.990234 17.634766 C 19.049234 17.382766 18.894578 17.129312 18.642578 17.070312 L 18.568359 17.052734 C 18.243359 16.975734 17.822859 16.455562 17.255859 15.976562 C 16.698859 15.482563 16.001906 15.002 15.003906 15 L 15.001953 15 L 15 15 z M 10 21 A 1 1 0 0 0 10 23 A 1 1 0 0 0 10 21 z M 20 21 A 1 1 0 0 0 20 23 A 1 1 0 0 0 20 21 z"/></svg>