<svg fill="#000000" xmlns="http://www.w3.org/2000/svg"  viewBox="0 0 30 30" width="60px" height="60px"><path d="M 7 3 C 4.202 3 1.558 4.342 1 6 C 2.591 5.163 4 6 4 6 C 4 6 1 6.834 1 11 C 1 16.074 5 16.104 5 20 C 5 23.216 2.484 25.504 1 26 C 9.338 26 11 21.951 11 20 C 11 18.049 9 11.785 9 10 C 9 8.464 9.833 8 10.5 8 C 11.379 8 12 9 12 9 C 12 7.81 12.59 7 14 7 C 14 7 11.584 3 7 3 z M 21 3 C 17.696 3.609 15 5.902 15 10 C 13.028 10 12 12.190953 12 13.876953 C 12 16.134539 13.590666 17.811206 15.041016 18.496094 C 15.186964 19.45882 15.735974 20.169006 16.275391 20.523438 C 16.502824 20.672875 16.536032 20.622678 16.736328 20.693359 C 16.869362 21.315349 16.994796 22.471693 17.015625 23.599609 C 17.039184 24.875356 17 25.964844 17 25.964844 A 1.0006178 1.0006178 0 1 0 19 26.035156 C 19 26.035156 19.040315 24.899504 19.015625 23.5625 C 18.990935 22.225496 18.952365 20.761024 18.599609 19.6875 A 1.0001 1.0001 0 0 0 17.75 19.005859 C 17.75 19.005859 17.569012 18.98032 17.373047 18.851562 C 17.177082 18.722801 17 18.616627 17 18 C 17 17.605965 17.066351 17.342127 17.123047 17.205078 C 17.352056 17.086613 17.585319 17 17.808594 17 C 18.403594 17 18.43 17.619 19 18 C 19 16.808 19.064281 13.911969 16.488281 12.292969 L 18.574219 12 C 18.233219 11.066 17.412109 10.470703 17.412109 10.470703 C 17.412109 10.470703 18.058 10 19 10 C 19.997182 10 20.727575 10.528263 21.365234 11.265625 C 21.174709 11.326052 20.983633 11.390099 20.792969 11.482422 C 19.843139 11.942348 19 13.034509 19 14.5 C 19 16.506634 20.829698 18 22.894531 18 C 23.714247 18 24.454631 17.722464 25.099609 17.339844 C 25.165223 17.696017 25.222112 18.044329 25.304688 18.412109 C 25.453915 19.076756 25.582518 19.520887 25.714844 20.009766 A 1.5 1 0 0 0 25.5 20 A 1.5 1 0 0 0 24.490234 20.261719 C 24.224926 20.103664 23.883532 20 23.5 20 C 21.552 20 20.130859 22 20.130859 22 C 20.130859 22 21.256394 22.635219 22.535156 22.890625 A 1.0001 1.0001 0 0 0 22.75 22.970703 C 22.72588 23.388309 22.667776 23.781106 22.697266 24.242188 C 22.746686 25.014927 22.826103 25.736015 23.066406 26.359375 A 1.000374 1.000374 0 1 0 24.933594 25.640625 C 24.870894 25.477985 24.735441 24.773245 24.693359 24.115234 C 24.662979 23.640239 24.697456 23.308486 24.722656 23 L 25 23 C 25.807358 23 26.487844 22.834588 27.03125 22.527344 C 27.302953 22.373722 27.547423 22.185589 27.744141 21.902344 C 27.940858 21.619098 28.08801 21.172919 27.960938 20.726562 A 1.0001 1.0001 0 0 0 27.960938 20.724609 C 27.824139 20.245573 27.508932 19.099812 27.255859 17.972656 C 27.129323 17.409078 27.01777 16.849886 26.953125 16.394531 C 26.930126 16.232513 26.92391 16.102128 26.916016 15.970703 C 27.987635 15.827623 29 15 29 15 C 24.852 13 28.582 7.988 23.5 6 C 23.5 6 24.172 5 26 5 C 23.908 3.446 21.583719 3.6575625 19.761719 5.9765625 C 19.814719 4.6085625 21 3 21 3 z M 22.648438 13.048828 C 23.211113 13.895868 23.802396 14.728788 24.560547 15.294922 C 24.03412 15.704856 23.338398 16 22.894531 16 C 21.763365 16 21 15.255366 21 14.5 C 21 13.650491 21.227642 13.492574 21.664062 13.28125 C 21.921875 13.156412 22.278759 13.089711 22.648438 13.048828 z M 22.5 14 A 0.5 0.5 0 0 0 22.5 15 A 0.5 0.5 0 0 0 22.5 14 z"/></svg>